<?xml version="1.0" encoding="UTF-8"?>
<svg id="Layer_2" data-name="Layer 2" xmlns="http://www.w3.org/2000/svg" viewBox="0 0 1920 1080">
  <defs>
    <style>
      .cls-1, .cls-2, .cls-3 {
        fill: #fff;
      }

      .cls-2 {
        font-family: MonotypeCorsiva, 'Monotype Corsiva';
        font-size: 72px;
      }

      .cls-3 {
        font-family: BerlinSansFBDemi-Bold, 'Berlin Sans FB Demi';
        font-size: 250px;
        font-weight: 700;
        opacity: .75;
      }
    </style>
  </defs>
  <text class="cls-3" transform="translate(-1929.18 628.12)"><tspan x="0" y="0">Knowlegde Base</tspan></text>
  <text class="cls-2" transform="translate(9.83 203.37)"><tspan x="0" y="0">Elite</tspan></text>
  <g>
    <path class="cls-1" d="M371.95,229.93v620.23h-141.36c-85.53-273.14-134.92-408-148.18-404.53-12.92,3.38,8.5,138.21,64.28,404.53H11.85V229.93h134.85c73.69,302.87,117.87,452.9,132.53,450.07,14.39-2.78.35-152.79-42.12-450.07h134.85Z"/>
    <path class="cls-1" d="M805.23,593.01c0,62.32-1.47,106.44-4.41,132.36-2.94,25.92-12.13,49.61-27.58,71.06-15.46,21.45-36.33,37.93-62.64,49.42-26.31,11.49-56.95,17.24-91.94,17.24s-63.02-5.43-89.45-16.28c-26.43-10.85-47.7-27.13-63.78-48.84-16.09-21.7-25.67-45.33-28.73-70.87-3.06-25.54-4.6-70.23-4.6-134.08v-106.12c0-62.31,1.47-106.43,4.41-132.36,2.93-25.92,12.13-49.61,27.58-71.06,15.45-21.45,36.33-37.93,62.64-49.42,26.3-11.49,56.95-17.24,91.94-17.24,33.2,0,63.02,5.43,89.45,16.28,26.43,10.86,47.7,27.14,63.78,48.84,16.09,21.71,25.67,45.34,28.73,70.87,3.06,25.54,4.6,70.24,4.6,134.08v106.12Z"/>
    <path class="cls-1" d="M1190.24,229.93c13.47,43.1,26.47,102.26,0,124.12-25.74,21.26-67.11-10.67-95.77,0-41.86,15.59-63.8,124.72,0,496.11h-161.28c63.7-371.42,41.81-480.57,0-496.11-28.55-10.61-69.72,21.17-95.39,0-26.46-21.83-13.47-81,0-124.12h352.45Z"/>
    <path class="cls-1" d="M1227.02,229.93h268.93v124.12h-107.65v117.61h100.75v117.99h-100.75c-58.92,40.1-63.62,116.7-30.51,151.82,31.73,33.66,103.89,35.25,148.89-15.44v124.12h-279.66V229.93Z"/>
    <path d="M777.86,539.95c-125.42,18.65-140.54,33.77-159.19,159.19-18.65-125.42-33.77-140.54-159.19-159.19,125.42-18.65,140.54-33.77,159.19-159.19,18.65,125.42,33.77,140.54,159.19,159.19Z"/>
    <g>
      <path class="cls-1" d="M1584.82,522.23c12.97,11.95,39.35,31.12,79.15,57.49l74.44-128.94c-21.4-13.21-34.57-24.62-39.46-34.22-5.6-10.47-8.4-26.07-8.4-46.77,0-16.1,2.49-28.11,7.47-36.04,4.98-7.92,12.32-11.89,22.03-11.89,8.94,0,15.32,2.94,19.15,8.81,3.83,5.88,5.75,19.54,5.75,40.99v45.97h12.59l74.34-128.75,58.12,33.55c-2.34-13.96-5.54-25.34-9.62-34.1-9.58-20.55-29.12-37.6-58.61-51.14-29.5-13.53-65.19-20.3-107.07-20.3-38.31,0-71,6.2-98.07,18.58-27.07,12.39-46.68,29.56-58.8,51.53-12.13,21.97-18.2,56.7-18.2,104.2,0,32.95,4.27,60.02,12.83,81.22,8.55,21.2,19.35,37.8,32.37,49.8Z"/>
      <path class="cls-1" d="M1840.81,417.65h53.93v-24.52c0-24.46-1.18-45.37-3.54-62.76l-50.39,87.28Z"/>
      <path class="cls-1" d="M1880.19,559.39c-13.32-19.52-40.21-42.94-80.64-70.26l-76.36,132.25c7.51,5.97,13.12,10.98,16.79,15.01,9.96,11.24,14.94,35.12,14.94,71.64,0,16.61-2.62,29.12-7.85,37.54-5.24,8.43-13.22,12.64-23.94,12.64s-18.2-3.32-22.41-9.96c-4.21-6.64-6.32-21.58-6.32-44.82v-32.17l-78.5,135.96-58-33.48c.29.83.57,1.68.88,2.48,9.45,25.28,29.43,46.1,59.95,62.44,30.52,16.34,67.36,24.52,110.52,24.52,39.33,0,73.8-7.09,103.44-21.26,29.62-14.17,49.61-31.73,59.95-52.68,10.34-20.94,15.52-53.5,15.52-97.69,0-60.78-9.33-104.84-27.97-132.17Z"/>
      <path class="cls-1" d="M1636.12,627.97h-91.52v40.61c0,41.2,3.72,74.06,11.14,98.6l80.37-139.21Z"/>
    </g>
  </g>
</svg>